# xmcd
#
# Track frame offsets: 
#        150
#        20765
#        42062
#
# Disc length: 816 seconds
#
# Revision: 1
# Processed by: cddbd v1.5.2PL0 Copyright (c) Steve Scherf et al.
# Submitted via: ExactAudioCopyFreeDBPlugin 1.0
#
DISCID=1c032e03
DTITLE=Kelly, R. - The Storm Is Over Now
DYEAR=2001
DGENRE=R&B
TTITLE0=The Storm Is Over Now
TTITLE1=I Wish - Slang Dance Remix
TTITLE2=Just A Touch
EXTD=ID3G:  12
EXTT0=
EXTT1=
EXTT2=
PLAYORDER=
